<svg xmlns="http://www.w3.org/2000/svg" width="443" height="503" fill="none"><path fill="#003370" d="M228.754 475.746c-52.822-30.499-97.935-78.141-135.338-142.924-37.402-64.783-56.105-127.673-56.107-188.668-.002-60.996 18.697-102.29 56.097-123.883 37.4-21.593 82.512-17.14 135.334 13.36 52.823 30.5 97.936 78.141 135.338 142.924 37.403 64.783 56.105 127.673 56.107 188.668.002 60.996-18.697 102.29-56.097 123.883-37.4 21.593-82.511 17.14-135.334-13.36Zm-.002-73.686c35.274 20.367 65.319 23.387 90.134 9.06 24.992-14.429 37.488-42.01 37.487-82.742-.002-40.731-12.499-82.641-37.494-125.727-24.817-43.189-54.862-74.967-90.136-95.334-35.275-20.367-65.408-23.336-90.4-8.907-24.815 14.327-37.222 41.857-37.221 82.588.001 40.732 12.41 82.693 37.227 125.882 24.995 43.086 55.129 74.813 90.403 95.18Z"/><path fill="#003370" d="M442.537.442v73.686H258.322v368.429h-73.686V74.127H.422V.443h442.115Z"/></svg>